<?xml version="1.0" encoding="UTF-8" standalone="no"?>
<!DOCTYPE svg PUBLIC "-//W3C//DTD SVG 1.1//EN"
 "http://www.w3.org/Graphics/SVG/1.1/DTD/svg11.dtd">
<!-- Generated by graphviz version 13.0.1 (20250615.1724)
 -->
<!-- Title: G Pages: 1 -->
<svg width="6187pt" height="116pt"
 viewBox="0.00 0.00 6187.00 116.00" xmlns="http://www.w3.org/2000/svg" xmlns:xlink="http://www.w3.org/1999/xlink">
<g id="graph0" class="graph" transform="scale(1 1) rotate(0) translate(4 112)">
<title>G</title>
<polygon fill="white" stroke="none" points="-4,4 -4,-112 6183.18,-112 6183.18,4 -4,4"/>
<!-- feature:contact&#45;contact -->
<g id="node1" class="node">
<title>feature:contact&#45;contact</title>
<ellipse fill="none" stroke="black" cx="3126.75" cy="-90" rx="95.37" ry="18"/>
<text xml:space="preserve" text-anchor="middle" x="3126.75" y="-84.95" font-family="Times,serif" font-size="14.00">feature:contact&#45;contact</text>
</g>
<!-- core:push -->
<g id="node2" class="node">
<title>core:push</title>
<ellipse fill="none" stroke="black" cx="46.75" cy="-18" rx="46.75" ry="18"/>
<text xml:space="preserve" text-anchor="middle" x="46.75" y="-12.95" font-family="Times,serif" font-size="14.00">core:push</text>
</g>
<!-- feature:contact&#45;contact&#45;&gt;core:push -->
<g id="edge1" class="edge">
<title>feature:contact&#45;contact&#45;&gt;core:push</title>
<path fill="none" stroke="black" d="M3031.25,-88.9C2549.49,-88.18 397.27,-82.36 102.75,-36 99.08,-35.42 95.32,-34.67 91.57,-33.79"/>
<polygon fill="black" stroke="black" points="92.47,-30.41 81.91,-31.26 90.7,-37.18 92.47,-30.41"/>
</g>
<!-- core:contact -->
<g id="node3" class="node">
<title>core:contact</title>
<ellipse fill="none" stroke="black" cx="167.75" cy="-18" rx="55.96" ry="18"/>
<text xml:space="preserve" text-anchor="middle" x="167.75" y="-12.95" font-family="Times,serif" font-size="14.00">core:contact</text>
</g>
<!-- feature:contact&#45;contact&#45;&gt;core:contact -->
<g id="edge2" class="edge">
<title>feature:contact&#45;contact&#45;&gt;core:contact</title>
<path fill="none" stroke="black" d="M3031.16,-88.6C2562.03,-86.44 514.55,-74.87 232.75,-36 228.13,-35.36 223.37,-34.51 218.63,-33.53"/>
<polygon fill="black" stroke="black" points="219.67,-30.17 209.14,-31.37 218.11,-37 219.67,-30.17"/>
</g>
<!-- core:login -->
<g id="node4" class="node">
<title>core:login</title>
<ellipse fill="none" stroke="black" cx="289.75" cy="-18" rx="48.28" ry="18"/>
<text xml:space="preserve" text-anchor="middle" x="289.75" y="-12.95" font-family="Times,serif" font-size="14.00">core:login</text>
</g>
<!-- feature:contact&#45;contact&#45;&gt;core:login -->
<g id="edge3" class="edge">
<title>feature:contact&#45;contact&#45;&gt;core:login</title>
<path fill="none" stroke="black" d="M3031.16,-88.68C2573.49,-86.97 617.02,-77.27 347.75,-36 343.84,-35.4 339.83,-34.61 335.83,-33.7"/>
<polygon fill="black" stroke="black" points="336.7,-30.31 326.15,-31.24 334.97,-37.09 336.7,-30.31"/>
</g>
<!-- core:identity -->
<g id="node5" class="node">
<title>core:identity</title>
<ellipse fill="none" stroke="black" cx="413.75" cy="-18" rx="57.49" ry="18"/>
<text xml:space="preserve" text-anchor="middle" x="413.75" y="-12.95" font-family="Times,serif" font-size="14.00">core:identity</text>
</g>
<!-- feature:contact&#45;contact&#45;&gt;core:identity -->
<g id="edge4" class="edge">
<title>feature:contact&#45;contact&#45;&gt;core:identity</title>
<path fill="none" stroke="black" d="M3031.34,-88.4C2587.56,-85.44 735.97,-71.08 479.75,-36 475.13,-35.37 470.37,-34.53 465.63,-33.56"/>
<polygon fill="black" stroke="black" points="466.64,-30.2 456.12,-31.43 465.12,-37.03 466.64,-30.2"/>
</g>
<!-- core:checkout -->
<g id="node6" class="node">
<title>core:checkout</title>
<ellipse fill="none" stroke="black" cx="551.75" cy="-18" rx="62.61" ry="18"/>
<text xml:space="preserve" text-anchor="middle" x="551.75" y="-12.95" font-family="Times,serif" font-size="14.00">core:checkout</text>
</g>
<!-- feature:contact&#45;contact&#45;&gt;core:checkout -->
<g id="edge5" class="edge">
<title>feature:contact&#45;contact&#45;&gt;core:checkout</title>
<path fill="none" stroke="black" d="M3031.59,-88.17C2603.37,-84.29 865.4,-66.74 623.75,-36 618.37,-35.32 612.82,-34.4 607.29,-33.34"/>
<polygon fill="black" stroke="black" points="608.01,-29.92 597.51,-31.31 606.59,-36.77 608.01,-29.92"/>
</g>
<!-- core:cart -->
<g id="node7" class="node">
<title>core:cart</title>
<ellipse fill="none" stroke="black" cx="675.75" cy="-18" rx="43.16" ry="18"/>
<text xml:space="preserve" text-anchor="middle" x="675.75" y="-12.95" font-family="Times,serif" font-size="14.00">core:cart</text>
</g>
<!-- feature:contact&#45;contact&#45;&gt;core:cart -->
<g id="edge6" class="edge">
<title>feature:contact&#45;contact&#45;&gt;core:cart</title>
<path fill="none" stroke="black" d="M3031.31,-88.55C2613.62,-86.33 957.14,-75.15 727.75,-36 724.54,-35.45 721.27,-34.75 717.99,-33.94"/>
<polygon fill="black" stroke="black" points="719.02,-30.59 708.45,-31.26 717.13,-37.33 719.02,-30.59"/>
</g>
<!-- core:user -->
<g id="node8" class="node">
<title>core:user</title>
<ellipse fill="none" stroke="black" cx="781.75" cy="-18" rx="44.7" ry="18"/>
<text xml:space="preserve" text-anchor="middle" x="781.75" y="-12.95" font-family="Times,serif" font-size="14.00">core:user</text>
</g>
<!-- feature:contact&#45;contact&#45;&gt;core:user -->
<g id="edge7" class="edge">
<title>feature:contact&#45;contact&#45;&gt;core:user</title>
<path fill="none" stroke="black" d="M3031.56,-88.38C2626.17,-85.52 1054.26,-72.18 835.75,-36 832.32,-35.43 828.8,-34.7 825.3,-33.85"/>
<polygon fill="black" stroke="black" points="826.25,-30.48 815.69,-31.24 824.42,-37.24 826.25,-30.48"/>
</g>
<!-- core:profile -->
<g id="node9" class="node">
<title>core:profile</title>
<ellipse fill="none" stroke="black" cx="898.75" cy="-18" rx="53.91" ry="18"/>
<text xml:space="preserve" text-anchor="middle" x="898.75" y="-12.95" font-family="Times,serif" font-size="14.00">core:profile</text>
</g>
<!-- feature:contact&#45;contact&#45;&gt;core:profile -->
<g id="edge8" class="edge">
<title>feature:contact&#45;contact&#45;&gt;core:profile</title>
<path fill="none" stroke="black" d="M3031.6,-88.01C2640.56,-83.76 1167.96,-65.91 961.75,-36 957.39,-35.37 952.91,-34.54 948.44,-33.58"/>
<polygon fill="black" stroke="black" points="949.43,-30.22 938.9,-31.34 947.83,-37.04 949.43,-30.22"/>
</g>
<!-- core:feed -->
<g id="node10" class="node">
<title>core:feed</title>
<ellipse fill="none" stroke="black" cx="1015.75" cy="-18" rx="45.21" ry="18"/>
<text xml:space="preserve" text-anchor="middle" x="1015.75" y="-12.95" font-family="Times,serif" font-size="14.00">core:feed</text>
</g>
<!-- feature:contact&#45;contact&#45;&gt;core:feed -->
<g id="edge9" class="edge">
<title>feature:contact&#45;contact&#45;&gt;core:feed</title>
<path fill="none" stroke="black" d="M3031.54,-88.11C2652.82,-84.35 1264.21,-68.46 1069.75,-36 1066.32,-35.43 1062.81,-34.69 1059.3,-33.84"/>
<polygon fill="black" stroke="black" points="1060.26,-30.47 1049.69,-31.23 1058.42,-37.23 1060.26,-30.47"/>
</g>
<!-- core:comment -->
<g id="node11" class="node">
<title>core:comment</title>
<ellipse fill="none" stroke="black" cx="1143.75" cy="-18" rx="64.66" ry="18"/>
<text xml:space="preserve" text-anchor="middle" x="1143.75" y="-12.95" font-family="Times,serif" font-size="14.00">core:comment</text>
</g>
<!-- feature:contact&#45;contact&#45;&gt;core:comment -->
<g id="edge10" class="edge">
<title>feature:contact&#45;contact&#45;&gt;core:comment</title>
<path fill="none" stroke="black" d="M3031.25,-88.89C2695.94,-88.1 1573.4,-82 1216.75,-36 1211.46,-35.32 1205.99,-34.42 1200.54,-33.39"/>
<polygon fill="black" stroke="black" points="1201.42,-30 1190.92,-31.43 1200.02,-36.86 1201.42,-30"/>
</g>
<!-- core:post -->
<g id="node12" class="node">
<title>core:post</title>
<ellipse fill="none" stroke="black" cx="1270.75" cy="-18" rx="44.7" ry="18"/>
<text xml:space="preserve" text-anchor="middle" x="1270.75" y="-12.95" font-family="Times,serif" font-size="14.00">core:post</text>
</g>
<!-- feature:contact&#45;contact&#45;&gt;core:post -->
<g id="edge11" class="edge">
<title>feature:contact&#45;contact&#45;&gt;core:post</title>
<path fill="none" stroke="black" d="M3031.73,-87.74C2684.14,-82.9 1493.13,-64.42 1324.75,-36 1321.32,-35.42 1317.81,-34.68 1314.3,-33.83"/>
<polygon fill="black" stroke="black" points="1315.26,-30.46 1304.69,-31.21 1313.42,-37.21 1315.26,-30.46"/>
</g>
<!-- core:search -->
<g id="node13" class="node">
<title>core:search</title>
<ellipse fill="none" stroke="black" cx="1386.75" cy="-18" rx="52.89" ry="18"/>
<text xml:space="preserve" text-anchor="middle" x="1386.75" y="-12.95" font-family="Times,serif" font-size="14.00">core:search</text>
</g>
<!-- feature:contact&#45;contact&#45;&gt;core:search -->
<g id="edge12" class="edge">
<title>feature:contact&#45;contact&#45;&gt;core:search</title>
<path fill="none" stroke="black" d="M3031.24,-88.94C2723.07,-88.29 1757.22,-82.49 1448.75,-36 1444.46,-35.35 1440.05,-34.51 1435.65,-33.55"/>
<polygon fill="black" stroke="black" points="1436.82,-30.23 1426.28,-31.3 1435.19,-37.04 1436.82,-30.23"/>
</g>
<!-- core:location -->
<g id="node14" class="node">
<title>core:location</title>
<ellipse fill="none" stroke="black" cx="1516.75" cy="-18" rx="59.03" ry="18"/>
<text xml:space="preserve" text-anchor="middle" x="1516.75" y="-12.95" font-family="Times,serif" font-size="14.00">core:location</text>
</g>
<!-- feature:contact&#45;contact&#45;&gt;core:location -->
<g id="edge13" class="edge">
<title>feature:contact&#45;contact&#45;&gt;core:location</title>
<path fill="none" stroke="black" d="M3031.44,-88.35C2740.43,-85.95 1866.17,-75.56 1584.75,-36 1579.87,-35.31 1574.83,-34.42 1569.81,-33.4"/>
<polygon fill="black" stroke="black" points="1570.91,-30.06 1560.39,-31.33 1569.41,-36.9 1570.91,-30.06"/>
</g>
<!-- core:network -->
<g id="node15" class="node">
<title>core:network</title>
<ellipse fill="none" stroke="black" cx="1653.75" cy="-18" rx="59.54" ry="18"/>
<text xml:space="preserve" text-anchor="middle" x="1653.75" y="-12.95" font-family="Times,serif" font-size="14.00">core:network</text>
</g>
<!-- feature:contact&#45;contact&#45;&gt;core:network -->
<g id="edge14" class="edge">
<title>feature:contact&#45;contact&#45;&gt;core:network</title>
<path fill="none" stroke="black" d="M3031.61,-87.93C2758.66,-84.48 1976.37,-71.65 1722.75,-36 1717.73,-35.3 1712.55,-34.38 1707.39,-33.34"/>
<polygon fill="black" stroke="black" points="1708.17,-29.93 1697.66,-31.21 1706.68,-36.77 1708.17,-29.93"/>
</g>
<!-- core:sync -->
<g id="node16" class="node">
<title>core:sync</title>
<ellipse fill="none" stroke="black" cx="1777.75" cy="-18" rx="46.23" ry="18"/>
<text xml:space="preserve" text-anchor="middle" x="1777.75" y="-12.95" font-family="Times,serif" font-size="14.00">core:sync</text>
</g>
<!-- feature:contact&#45;contact&#45;&gt;core:sync -->
<g id="edge15" class="edge">
<title>feature:contact&#45;contact&#45;&gt;core:sync</title>
<path fill="none" stroke="black" d="M3031.63,-88.29C2773.41,-85.85 2063.2,-75.64 1832.75,-36 1829.2,-35.39 1825.56,-34.62 1821.93,-33.73"/>
<polygon fill="black" stroke="black" points="1823.18,-30.45 1812.61,-31.23 1821.36,-37.2 1823.18,-30.45"/>
</g>
<!-- core:share -->
<g id="node17" class="node">
<title>core:share</title>
<ellipse fill="none" stroke="black" cx="1890.75" cy="-18" rx="48.79" ry="18"/>
<text xml:space="preserve" text-anchor="middle" x="1890.75" y="-12.95" font-family="Times,serif" font-size="14.00">core:share</text>
</g>
<!-- feature:contact&#45;contact&#45;&gt;core:share -->
<g id="edge16" class="edge">
<title>feature:contact&#45;contact&#45;&gt;core:share</title>
<path fill="none" stroke="black" d="M3031.97,-87.67C2790.46,-83.8 2156.36,-70.58 1948.75,-36 1944.9,-35.36 1940.95,-34.55 1937.01,-33.63"/>
<polygon fill="black" stroke="black" points="1938.03,-30.28 1927.48,-31.18 1936.29,-37.06 1938.03,-30.28"/>
</g>
<!-- core:group -->
<g id="node18" class="node">
<title>core:group</title>
<ellipse fill="none" stroke="black" cx="2008.75" cy="-18" rx="50.84" ry="18"/>
<text xml:space="preserve" text-anchor="middle" x="2008.75" y="-12.95" font-family="Times,serif" font-size="14.00">core:group</text>
</g>
<!-- feature:contact&#45;contact&#45;&gt;core:group -->
<g id="edge17" class="edge">
<title>feature:contact&#45;contact&#45;&gt;core:group</title>
<path fill="none" stroke="black" d="M3032.34,-87C2808.91,-81.84 2252.71,-66.27 2068.75,-36 2064.72,-35.34 2060.57,-34.5 2056.43,-33.56"/>
<polygon fill="black" stroke="black" points="2057.59,-30.24 2047.04,-31.21 2055.9,-37.03 2057.59,-30.24"/>
</g>
<!-- core:message -->
<g id="node19" class="node">
<title>core:message</title>
<ellipse fill="none" stroke="black" cx="2138.75" cy="-18" rx="61.08" ry="18"/>
<text xml:space="preserve" text-anchor="middle" x="2138.75" y="-12.95" font-family="Times,serif" font-size="14.00">core:message</text>
</g>
<!-- feature:contact&#45;contact&#45;&gt;core:message -->
<g id="edge18" class="edge">
<title>feature:contact&#45;contact&#45;&gt;core:message</title>
<path fill="none" stroke="black" d="M3031.01,-89.14C2863.42,-88.13 2506.38,-80.36 2208.75,-36 2203.81,-35.26 2198.71,-34.35 2193.63,-33.32"/>
<polygon fill="black" stroke="black" points="2194.56,-29.94 2184.05,-31.24 2193.08,-36.78 2194.56,-29.94"/>
</g>
<!-- core:notification -->
<g id="node20" class="node">
<title>core:notification</title>
<ellipse fill="none" stroke="black" cx="2289.75" cy="-18" rx="71.82" ry="18"/>
<text xml:space="preserve" text-anchor="middle" x="2289.75" y="-12.95" font-family="Times,serif" font-size="14.00">core:notification</text>
</g>
<!-- feature:contact&#45;contact&#45;&gt;core:notification -->
<g id="edge19" class="edge">
<title>feature:contact&#45;contact&#45;&gt;core:notification</title>
<path fill="none" stroke="black" d="M3032.62,-86.54C2889.19,-81.86 2607.59,-69 2370.75,-36 2364.79,-35.17 2358.61,-34.16 2352.44,-33.04"/>
<polygon fill="black" stroke="black" points="2353.38,-29.66 2342.9,-31.23 2352.07,-36.53 2353.38,-29.66"/>
</g>
<!-- core:setting -->
<g id="node21" class="node">
<title>core:setting</title>
<ellipse fill="none" stroke="black" cx="2433.75" cy="-18" rx="53.91" ry="18"/>
<text xml:space="preserve" text-anchor="middle" x="2433.75" y="-12.95" font-family="Times,serif" font-size="14.00">core:setting</text>
</g>
<!-- feature:contact&#45;contact&#45;&gt;core:setting -->
<g id="edge20" class="edge">
<title>feature:contact&#45;contact&#45;&gt;core:setting</title>
<path fill="none" stroke="black" d="M3032.94,-86.36C2909.26,-81.69 2685.26,-69.09 2496.75,-36 2492.47,-35.25 2488.07,-34.34 2483.67,-33.35"/>
<polygon fill="black" stroke="black" points="2484.83,-30.03 2474.29,-31.07 2483.18,-36.83 2484.83,-30.03"/>
</g>
<!-- core:account -->
<g id="node22" class="node">
<title>core:account</title>
<ellipse fill="none" stroke="black" cx="2563.75" cy="-18" rx="58" ry="18"/>
<text xml:space="preserve" text-anchor="middle" x="2563.75" y="-12.95" font-family="Times,serif" font-size="14.00">core:account</text>
</g>
<!-- feature:contact&#45;contact&#45;&gt;core:account -->
<g id="edge21" class="edge">
<title>feature:contact&#45;contact&#45;&gt;core:account</title>
<path fill="none" stroke="black" d="M3037.5,-83.3C2937.79,-76.04 2771.82,-61.3 2630.75,-36 2626.35,-35.21 2621.82,-34.29 2617.29,-33.3"/>
<polygon fill="black" stroke="black" points="2618.09,-29.89 2607.55,-31.05 2616.51,-36.71 2618.09,-29.89"/>
</g>
<!-- core:session -->
<g id="node23" class="node">
<title>core:session</title>
<ellipse fill="none" stroke="black" cx="2695.75" cy="-18" rx="55.96" ry="18"/>
<text xml:space="preserve" text-anchor="middle" x="2695.75" y="-12.95" font-family="Times,serif" font-size="14.00">core:session</text>
</g>
<!-- feature:contact&#45;contact&#45;&gt;core:session -->
<g id="edge22" class="edge">
<title>feature:contact&#45;contact&#45;&gt;core:session</title>
<path fill="none" stroke="black" d="M3046.34,-79.98C2971.88,-71.02 2858.28,-55.75 2760.75,-36 2756.49,-35.14 2752.11,-34.17 2747.71,-33.14"/>
<polygon fill="black" stroke="black" points="2748.86,-29.82 2738.32,-30.85 2747.2,-36.62 2748.86,-29.82"/>
</g>
<!-- core:analytics -->
<g id="node24" class="node">
<title>core:analytics</title>
<ellipse fill="none" stroke="black" cx="2831.75" cy="-18" rx="62.1" ry="18"/>
<text xml:space="preserve" text-anchor="middle" x="2831.75" y="-12.95" font-family="Times,serif" font-size="14.00">core:analytics</text>
</g>
<!-- feature:contact&#45;contact&#45;&gt;core:analytics -->
<g id="edge23" class="edge">
<title>feature:contact&#45;contact&#45;&gt;core:analytics</title>
<path fill="none" stroke="black" d="M3068.72,-75.32C3023.49,-64.64 2959.12,-49.42 2902.75,-36 2898.43,-34.97 2893.97,-33.91 2889.48,-32.84"/>
<polygon fill="black" stroke="black" points="2890.35,-29.45 2879.81,-30.53 2888.72,-36.25 2890.35,-29.45"/>
</g>
<!-- core:report -->
<g id="node25" class="node">
<title>core:report</title>
<ellipse fill="none" stroke="black" cx="2962.75" cy="-18" rx="51.35" ry="18"/>
<text xml:space="preserve" text-anchor="middle" x="2962.75" y="-12.95" font-family="Times,serif" font-size="14.00">core:report</text>
</g>
<!-- feature:contact&#45;contact&#45;&gt;core:report -->
<g id="edge24" class="edge">
<title>feature:contact&#45;contact&#45;&gt;core:report</title>
<path fill="none" stroke="black" d="M3089.53,-73.12C3064.36,-62.37 3031.08,-48.17 3004.92,-37"/>
<polygon fill="black" stroke="black" points="3006.53,-33.88 2995.95,-33.17 3003.78,-40.32 3006.53,-33.88"/>
</g>
<!-- core:log -->
<g id="node26" class="node">
<title>core:log</title>
<ellipse fill="none" stroke="black" cx="3072.75" cy="-18" rx="41.12" ry="18"/>
<text xml:space="preserve" text-anchor="middle" x="3072.75" y="-12.95" font-family="Times,serif" font-size="14.00">core:log</text>
</g>
<!-- feature:contact&#45;contact&#45;&gt;core:log -->
<g id="edge25" class="edge">
<title>feature:contact&#45;contact&#45;&gt;core:log</title>
<path fill="none" stroke="black" d="M3113.4,-71.7C3107,-63.4 3099.21,-53.31 3092.17,-44.19"/>
<polygon fill="black" stroke="black" points="3095,-42.12 3086.12,-36.34 3089.46,-46.4 3095,-42.12"/>
</g>
<!-- core:status -->
<g id="node27" class="node">
<title>core:status</title>
<ellipse fill="none" stroke="black" cx="3181.75" cy="-18" rx="50.33" ry="18"/>
<text xml:space="preserve" text-anchor="middle" x="3181.75" y="-12.95" font-family="Times,serif" font-size="14.00">core:status</text>
</g>
<!-- feature:contact&#45;contact&#45;&gt;core:status -->
<g id="edge26" class="edge">
<title>feature:contact&#45;contact&#45;&gt;core:status</title>
<path fill="none" stroke="black" d="M3140.34,-71.7C3146.76,-63.52 3154.56,-53.6 3161.64,-44.58"/>
<polygon fill="black" stroke="black" points="3164.32,-46.84 3167.75,-36.81 3158.82,-42.51 3164.32,-46.84"/>
</g>
<!-- core:metric -->
<g id="node28" class="node">
<title>core:metric</title>
<ellipse fill="none" stroke="black" cx="3303.75" cy="-18" rx="53.4" ry="18"/>
<text xml:space="preserve" text-anchor="middle" x="3303.75" y="-12.95" font-family="Times,serif" font-size="14.00">core:metric</text>
</g>
<!-- feature:contact&#45;contact&#45;&gt;core:metric -->
<g id="edge27" class="edge">
<title>feature:contact&#45;contact&#45;&gt;core:metric</title>
<path fill="none" stroke="black" d="M3166.47,-73.29C3194.12,-62.35 3231.02,-47.76 3259.6,-36.46"/>
<polygon fill="black" stroke="black" points="3260.69,-39.79 3268.7,-32.86 3258.11,-33.28 3260.69,-39.79"/>
</g>
<!-- core:task -->
<g id="node29" class="node">
<title>core:task</title>
<ellipse fill="none" stroke="black" cx="3419.75" cy="-18" rx="44.19" ry="18"/>
<text xml:space="preserve" text-anchor="middle" x="3419.75" y="-12.95" font-family="Times,serif" font-size="14.00">core:task</text>
</g>
<!-- feature:contact&#45;contact&#45;&gt;core:task -->
<g id="edge28" class="edge">
<title>feature:contact&#45;contact&#45;&gt;core:task</title>
<path fill="none" stroke="black" d="M3191.02,-76.32C3239.34,-66.41 3307.04,-51.72 3365.75,-36 3368.86,-35.17 3372.06,-34.27 3375.28,-33.33"/>
<polygon fill="black" stroke="black" points="3376.15,-36.73 3384.72,-30.5 3374.14,-30.02 3376.15,-36.73"/>
</g>
<!-- core:calendar -->
<g id="node30" class="node">
<title>core:calendar</title>
<ellipse fill="none" stroke="black" cx="3542.75" cy="-18" rx="60.56" ry="18"/>
<text xml:space="preserve" text-anchor="middle" x="3542.75" y="-12.95" font-family="Times,serif" font-size="14.00">core:calendar</text>
</g>
<!-- feature:contact&#45;contact&#45;&gt;core:calendar -->
<g id="edge29" class="edge">
<title>feature:contact&#45;contact&#45;&gt;core:calendar</title>
<path fill="none" stroke="black" d="M3204.03,-79.1C3274.37,-69.64 3380.94,-54.14 3472.75,-36 3477.37,-35.09 3482.15,-34.07 3486.94,-33.01"/>
<polygon fill="black" stroke="black" points="3487.62,-36.44 3496.59,-30.8 3486.06,-29.62 3487.62,-36.44"/>
</g>
<!-- core:event -->
<g id="node31" class="node">
<title>core:event</title>
<ellipse fill="none" stroke="black" cx="3670.75" cy="-18" rx="49.3" ry="18"/>
<text xml:space="preserve" text-anchor="middle" x="3670.75" y="-12.95" font-family="Times,serif" font-size="14.00">core:event</text>
</g>
<!-- feature:contact&#45;contact&#45;&gt;core:event -->
<g id="edge30" class="edge">
<title>feature:contact&#45;contact&#45;&gt;core:event</title>
<path fill="none" stroke="black" d="M3217.04,-83.93C3315.18,-77.32 3476.24,-63.23 3612.75,-36 3616.35,-35.28 3620.05,-34.44 3623.75,-33.53"/>
<polygon fill="black" stroke="black" points="3624.56,-36.94 3633.33,-30.99 3622.77,-30.17 3624.56,-36.94"/>
</g>
<!-- core:alarm -->
<g id="node32" class="node">
<title>core:alarm</title>
<ellipse fill="none" stroke="black" cx="3788.75" cy="-18" rx="50.84" ry="18"/>
<text xml:space="preserve" text-anchor="middle" x="3788.75" y="-12.95" font-family="Times,serif" font-size="14.00">core:alarm</text>
</g>
<!-- feature:contact&#45;contact&#45;&gt;core:alarm -->
<g id="edge31" class="edge">
<title>feature:contact&#45;contact&#45;&gt;core:alarm</title>
<path fill="none" stroke="black" d="M3220.55,-86.2C3339.6,-81.41 3550.88,-68.73 3728.75,-36 3732.59,-35.29 3736.54,-34.45 3740.49,-33.52"/>
<polygon fill="black" stroke="black" points="3741.26,-36.93 3750.09,-31.08 3739.53,-30.15 3741.26,-36.93"/>
</g>
<!-- core:timer -->
<g id="node33" class="node">
<title>core:timer</title>
<ellipse fill="none" stroke="black" cx="3906.75" cy="-18" rx="49.3" ry="18"/>
<text xml:space="preserve" text-anchor="middle" x="3906.75" y="-12.95" font-family="Times,serif" font-size="14.00">core:timer</text>
</g>
<!-- feature:contact&#45;contact&#45;&gt;core:timer -->
<g id="edge32" class="edge">
<title>feature:contact&#45;contact&#45;&gt;core:timer</title>
<path fill="none" stroke="black" d="M3222.16,-88.4C3361.11,-86.09 3626.75,-76.21 3848.75,-36 3852.36,-35.35 3856.07,-34.55 3859.78,-33.67"/>
<polygon fill="black" stroke="black" points="3860.56,-37.08 3869.36,-31.19 3858.81,-30.31 3860.56,-37.08"/>
</g>
<!-- core:file -->
<g id="node34" class="node">
<title>core:file</title>
<ellipse fill="none" stroke="black" cx="4015.75" cy="-18" rx="41.63" ry="18"/>
<text xml:space="preserve" text-anchor="middle" x="4015.75" y="-12.95" font-family="Times,serif" font-size="14.00">core:file</text>
</g>
<!-- feature:contact&#45;contact&#45;&gt;core:file -->
<g id="edge33" class="edge">
<title>feature:contact&#45;contact&#45;&gt;core:file</title>
<path fill="none" stroke="black" d="M3220.16,-86.13C3407.8,-79.88 3824.52,-63.33 3964.75,-36 3967.88,-35.39 3971.09,-34.64 3974.29,-33.79"/>
<polygon fill="black" stroke="black" points="3975,-37.23 3983.62,-31.07 3973.04,-30.51 3975,-37.23"/>
</g>
<!-- core:document -->
<g id="node35" class="node">
<title>core:document</title>
<ellipse fill="none" stroke="black" cx="4141.75" cy="-18" rx="66.19" ry="18"/>
<text xml:space="preserve" text-anchor="middle" x="4141.75" y="-12.95" font-family="Times,serif" font-size="14.00">core:document</text>
</g>
<!-- feature:contact&#45;contact&#45;&gt;core:document -->
<g id="edge34" class="edge">
<title>feature:contact&#45;contact&#45;&gt;core:document</title>
<path fill="none" stroke="black" d="M3222.32,-88.85C3392.8,-87.42 3760.22,-79.08 4066.75,-36 4072.08,-35.25 4077.6,-34.31 4083.11,-33.27"/>
<polygon fill="black" stroke="black" points="4083.76,-36.71 4092.87,-31.29 4082.38,-29.85 4083.76,-36.71"/>
</g>
<!-- core:note -->
<g id="node36" class="node">
<title>core:note</title>
<ellipse fill="none" stroke="black" cx="4270.75" cy="-18" rx="45.21" ry="18"/>
<text xml:space="preserve" text-anchor="middle" x="4270.75" y="-12.95" font-family="Times,serif" font-size="14.00">core:note</text>
</g>
<!-- feature:contact&#45;contact&#45;&gt;core:note -->
<g id="edge35" class="edge">
<title>feature:contact&#45;contact&#45;&gt;core:note</title>
<path fill="none" stroke="black" d="M3221.53,-87.5C3450.14,-83.4 4026.97,-69.9 4216.75,-36 4220.12,-35.4 4223.58,-34.64 4227.03,-33.79"/>
<polygon fill="black" stroke="black" points="4227.78,-37.22 4236.49,-31.19 4225.92,-30.46 4227.78,-37.22"/>
</g>
<!-- core:todo -->
<g id="node37" class="node">
<title>core:todo</title>
<ellipse fill="none" stroke="black" cx="4379.75" cy="-18" rx="45.72" ry="18"/>
<text xml:space="preserve" text-anchor="middle" x="4379.75" y="-12.95" font-family="Times,serif" font-size="14.00">core:todo</text>
</g>
<!-- feature:contact&#45;contact&#45;&gt;core:todo -->
<g id="edge36" class="edge">
<title>feature:contact&#45;contact&#45;&gt;core:todo</title>
<path fill="none" stroke="black" d="M3221.82,-87.92C3466.49,-84.65 4113.47,-72.7 4324.75,-36 4328.34,-35.38 4332.03,-34.58 4335.71,-33.68"/>
<polygon fill="black" stroke="black" points="4336.43,-37.11 4345.17,-31.12 4334.6,-30.36 4336.43,-37.11"/>
</g>
<!-- core:list -->
<g id="node38" class="node">
<title>core:list</title>
<ellipse fill="none" stroke="black" cx="4483.75" cy="-18" rx="40.6" ry="18"/>
<text xml:space="preserve" text-anchor="middle" x="4483.75" y="-12.95" font-family="Times,serif" font-size="14.00">core:list</text>
</g>
<!-- feature:contact&#45;contact&#45;&gt;core:list -->
<g id="edge37" class="edge">
<title>feature:contact&#45;contact&#45;&gt;core:list</title>
<path fill="none" stroke="black" d="M3222.02,-88.75C3482.45,-87.5 4202.24,-80.05 4434.75,-36 4437.57,-35.46 4440.45,-34.8 4443.34,-34.04"/>
<polygon fill="black" stroke="black" points="4444.29,-37.41 4452.88,-31.2 4442.29,-30.7 4444.29,-37.41"/>
</g>
<!-- core:map -->
<g id="node39" class="node">
<title>core:map</title>
<ellipse fill="none" stroke="black" cx="4587.75" cy="-18" rx="45.72" ry="18"/>
<text xml:space="preserve" text-anchor="middle" x="4587.75" y="-12.95" font-family="Times,serif" font-size="14.00">core:map</text>
</g>
<!-- feature:contact&#45;contact&#45;&gt;core:map -->
<g id="edge38" class="edge">
<title>feature:contact&#45;contact&#45;&gt;core:map</title>
<path fill="none" stroke="black" d="M3222.21,-88.72C3496.07,-87.39 4280.84,-79.76 4533.75,-36 4537.12,-35.42 4540.58,-34.67 4544.04,-33.83"/>
<polygon fill="black" stroke="black" points="4544.78,-37.26 4553.5,-31.25 4542.93,-30.5 4544.78,-37.26"/>
</g>
<!-- core:weather -->
<g id="node40" class="node">
<title>core:weather</title>
<ellipse fill="none" stroke="black" cx="4709.75" cy="-18" rx="58.52" ry="18"/>
<text xml:space="preserve" text-anchor="middle" x="4709.75" y="-12.95" font-family="Times,serif" font-size="14.00">core:weather</text>
</g>
<!-- feature:contact&#45;contact&#45;&gt;core:weather -->
<g id="edge39" class="edge">
<title>feature:contact&#45;contact&#45;&gt;core:weather</title>
<path fill="none" stroke="black" d="M3221.97,-88.33C3509.61,-85.88 4366.63,-75.39 4642.75,-36 4647.42,-35.33 4652.25,-34.47 4657.06,-33.48"/>
<polygon fill="black" stroke="black" points="4657.73,-36.92 4666.73,-31.33 4656.21,-30.09 4657.73,-36.92"/>
</g>
<!-- core:forecast -->
<g id="node41" class="node">
<title>core:forecast</title>
<ellipse fill="none" stroke="black" cx="4844.75" cy="-18" rx="58.52" ry="18"/>
<text xml:space="preserve" text-anchor="middle" x="4844.75" y="-12.95" font-family="Times,serif" font-size="14.00">core:forecast</text>
</g>
<!-- feature:contact&#45;contact&#45;&gt;core:forecast -->
<g id="edge40" class="edge">
<title>feature:contact&#45;contact&#45;&gt;core:forecast</title>
<path fill="none" stroke="black" d="M3222.28,-88.65C3527.11,-87.09 4474.35,-78.84 4777.75,-36 4782.42,-35.34 4787.25,-34.48 4792.06,-33.5"/>
<polygon fill="black" stroke="black" points="4792.73,-36.94 4801.73,-31.35 4791.21,-30.1 4792.73,-36.94"/>
</g>
<!-- core:news -->
<g id="node42" class="node">
<title>core:news</title>
<ellipse fill="none" stroke="black" cx="4969.75" cy="-18" rx="48.28" ry="18"/>
<text xml:space="preserve" text-anchor="middle" x="4969.75" y="-12.95" font-family="Times,serif" font-size="14.00">core:news</text>
</g>
<!-- feature:contact&#45;contact&#45;&gt;core:news -->
<g id="edge41" class="edge">
<title>feature:contact&#45;contact&#45;&gt;core:news</title>
<path fill="none" stroke="black" d="M3222.48,-89.43C3543.94,-90.38 4582.95,-89.14 4912.75,-36 4916.53,-35.39 4920.42,-34.6 4924.29,-33.69"/>
<polygon fill="black" stroke="black" points="4924.84,-37.17 4933.65,-31.27 4923.09,-30.39 4924.84,-37.17"/>
</g>
<!-- core:article -->
<g id="node43" class="node">
<title>core:article</title>
<ellipse fill="none" stroke="black" cx="5088.75" cy="-18" rx="52.38" ry="18"/>
<text xml:space="preserve" text-anchor="middle" x="5088.75" y="-12.95" font-family="Times,serif" font-size="14.00">core:article</text>
</g>
<!-- feature:contact&#45;contact&#45;&gt;core:article -->
<g id="edge42" class="edge">
<title>feature:contact&#45;contact&#45;&gt;core:article</title>
<path fill="none" stroke="black" d="M3222.38,-89.36C3556.87,-90.14 4673.12,-88.63 5026.75,-36 5031.09,-35.35 5035.57,-34.5 5040.03,-33.53"/>
<polygon fill="black" stroke="black" points="5040.64,-36.98 5049.55,-31.24 5039.01,-30.17 5040.64,-36.98"/>
</g>
<!-- core:podcast -->
<g id="node44" class="node">
<title>core:podcast</title>
<ellipse fill="none" stroke="black" cx="5216.75" cy="-18" rx="57.49" ry="18"/>
<text xml:space="preserve" text-anchor="middle" x="5216.75" y="-12.95" font-family="Times,serif" font-size="14.00">core:podcast</text>
</g>
<!-- feature:contact&#45;contact&#45;&gt;core:podcast -->
<g id="edge43" class="edge">
<title>feature:contact&#45;contact&#45;&gt;core:podcast</title>
<path fill="none" stroke="black" d="M3222.46,-89.31C3570.82,-90 4770.5,-88.41 5149.75,-36 5154.62,-35.33 5159.66,-34.43 5164.68,-33.4"/>
<polygon fill="black" stroke="black" points="5165.09,-36.9 5174.09,-31.3 5163.57,-30.06 5165.09,-36.9"/>
</g>
<!-- core:video -->
<g id="node45" class="node">
<title>core:video</title>
<ellipse fill="none" stroke="black" cx="5341.75" cy="-18" rx="49.82" ry="18"/>
<text xml:space="preserve" text-anchor="middle" x="5341.75" y="-12.95" font-family="Times,serif" font-size="14.00">core:video</text>
</g>
<!-- feature:contact&#45;contact&#45;&gt;core:video -->
<g id="edge44" class="edge">
<title>feature:contact&#45;contact&#45;&gt;core:video</title>
<path fill="none" stroke="black" d="M3221.84,-88.1C3611.81,-84.19 5077.7,-67.53 5282.75,-36 5286.78,-35.38 5290.92,-34.57 5295.05,-33.63"/>
<polygon fill="black" stroke="black" points="5295.56,-37.11 5304.41,-31.28 5293.86,-30.32 5295.56,-37.11"/>
</g>
<!-- core:photo -->
<g id="node46" class="node">
<title>core:photo</title>
<ellipse fill="none" stroke="black" cx="5459.75" cy="-18" rx="50.33" ry="18"/>
<text xml:space="preserve" text-anchor="middle" x="5459.75" y="-12.95" font-family="Times,serif" font-size="14.00">core:photo</text>
</g>
<!-- feature:contact&#45;contact&#45;&gt;core:photo -->
<g id="edge45" class="edge">
<title>feature:contact&#45;contact&#45;&gt;core:photo</title>
<path fill="none" stroke="black" d="M3221.88,-88.23C3625.25,-84.75 5183.55,-69.25 5400.75,-36 5404.78,-35.38 5408.92,-34.57 5413.05,-33.64"/>
<polygon fill="black" stroke="black" points="5413.56,-37.12 5422.41,-31.29 5411.86,-30.33 5413.56,-37.12"/>
</g>
<!-- core:gallery -->
<g id="node47" class="node">
<title>core:gallery</title>
<ellipse fill="none" stroke="black" cx="5582.75" cy="-18" rx="54.93" ry="18"/>
<text xml:space="preserve" text-anchor="middle" x="5582.75" y="-12.95" font-family="Times,serif" font-size="14.00">core:gallery</text>
</g>
<!-- feature:contact&#45;contact&#45;&gt;core:gallery -->
<g id="edge46" class="edge">
<title>feature:contact&#45;contact&#45;&gt;core:gallery</title>
<path fill="none" stroke="black" d="M3221.85,-88.23C3638.11,-84.66 5289.02,-68.58 5518.75,-36 5523.16,-35.37 5527.72,-34.55 5532.26,-33.59"/>
<polygon fill="black" stroke="black" points="5533.01,-37.01 5541.97,-31.35 5531.44,-30.19 5533.01,-37.01"/>
</g>
<!-- core:media -->
<g id="node48" class="node">
<title>core:media</title>
<ellipse fill="none" stroke="black" cx="5707.75" cy="-18" rx="52.38" ry="18"/>
<text xml:space="preserve" text-anchor="middle" x="5707.75" y="-12.95" font-family="Times,serif" font-size="14.00">core:media</text>
</g>
<!-- feature:contact&#45;contact&#45;&gt;core:media -->
<g id="edge47" class="edge">
<title>feature:contact&#45;contact&#45;&gt;core:media</title>
<path fill="none" stroke="black" d="M3222.22,-88.41C3652.86,-85.55 5404.04,-71.79 5646.75,-36 5650.85,-35.4 5655.07,-34.6 5659.28,-33.68"/>
<polygon fill="black" stroke="black" points="5659.95,-37.12 5668.85,-31.37 5658.3,-30.32 5659.95,-37.12"/>
</g>
<!-- core:audio -->
<g id="node49" class="node">
<title>core:audio</title>
<ellipse fill="none" stroke="black" cx="5827.75" cy="-18" rx="49.82" ry="18"/>
<text xml:space="preserve" text-anchor="middle" x="5827.75" y="-12.95" font-family="Times,serif" font-size="14.00">core:audio</text>
</g>
<!-- feature:contact&#45;contact&#45;&gt;core:audio -->
<g id="edge48" class="edge">
<title>feature:contact&#45;contact&#45;&gt;core:audio</title>
<path fill="none" stroke="black" d="M3221.99,-88.56C3665.04,-86.31 5513.52,-74.65 5768.75,-36 5772.78,-35.39 5776.92,-34.58 5781.05,-33.65"/>
<polygon fill="black" stroke="black" points="5781.56,-37.13 5790.41,-31.31 5779.86,-30.34 5781.56,-37.13"/>
</g>
<!-- core:playlist -->
<g id="node50" class="node">
<title>core:playlist</title>
<ellipse fill="none" stroke="black" cx="5951.75" cy="-18" rx="56.47" ry="18"/>
<text xml:space="preserve" text-anchor="middle" x="5951.75" y="-12.95" font-family="Times,serif" font-size="14.00">core:playlist</text>
</g>
<!-- feature:contact&#45;contact&#45;&gt;core:playlist -->
<g id="edge49" class="edge">
<title>feature:contact&#45;contact&#45;&gt;core:playlist</title>
<path fill="none" stroke="black" d="M3222.03,-88.51C3677.16,-85.98 5618.82,-73.08 5886.75,-36 5891.36,-35.36 5896.12,-34.51 5900.86,-33.52"/>
<polygon fill="black" stroke="black" points="5901.38,-37 5910.35,-31.36 5899.82,-30.17 5901.38,-37"/>
</g>
<!-- core:push&#45;contact -->
<g id="node51" class="node">
<title>core:push&#45;contact</title>
<ellipse fill="none" stroke="black" cx="6102.75" cy="-18" rx="76.43" ry="18"/>
<text xml:space="preserve" text-anchor="middle" x="6102.75" y="-12.95" font-family="Times,serif" font-size="14.00">core:push&#45;contact</text>
</g>
<!-- feature:contact&#45;contact&#45;&gt;core:push&#45;contact -->
<g id="edge50" class="edge">
<title>feature:contact&#45;contact&#45;&gt;core:push&#45;contact</title>
<path fill="none" stroke="black" d="M3222.16,-88.25C3690.44,-84.46 5734.28,-66.27 6016.75,-36 6023.52,-35.27 6030.55,-34.28 6037.54,-33.14"/>
<polygon fill="black" stroke="black" points="6038.09,-36.6 6047.34,-31.43 6036.89,-29.7 6038.09,-36.6"/>
</g>
</g>
</svg>
